<?xml version="1.0" encoding="utf-8"?>
<!-- Generator: Adobe Illustrator 24.0.1, SVG Export Plug-In . SVG Version: 6.00 Build 0)  -->
<svg version="1.1" id="Layer_1" xmlns="http://www.w3.org/2000/svg" xmlns:xlink="http://www.w3.org/1999/xlink" x="0px" y="0px"
	 viewBox="0 0 62 42" style="enable-background:new 0 0 62 42;" xml:space="preserve">
<style type="text/css">
	.st0{fill:none;stroke:#B72727;stroke-width:2;stroke-miterlimit:10;}
</style>
<g id="Layer_2_1_">
	<g id="Layer_1-2">
		<path class="st0" d="M31,41H7.2c0-1-0.4-6.8,9.5-10.6s9.8-6.8,9.8-6.8V21c0-0.6-0.2-1.1-0.6-1.6C24.6,18,23,12.6,23,12.6V7.5
			C23,0.2,31,1,31,1s8-0.8,8,6.4v5.2c0,0-1.6,5.4-2.9,6.9c-0.4,0.4-0.6,1-0.6,1.5v2.5c0,0-0.1,2.9,9.8,6.8S54.8,40,54.8,41H31"/>
		<path class="st0" d="M47.5,8.9c0,0,5-0.8,5,3.2v5.1c0,0-1,3.4-2,4.4c-0.3,0.3-0.5,0.7-0.5,1.1v2.2c0,0,1.5,4.5,6.3,4.9
			c0.4,0,0.9,0.2,1.2,0.4C58.6,31,61,33,61,35.7h-3.5c-0.3,0-0.5-0.1-0.7-0.3c-1.3-1.6-7.7-8.8-12-9.8c-0.6-0.1-1-0.6-1-1.2v-2.1
			c-0.3-1.5-0.8-2.9-1.5-4.2c-0.3-0.4-0.5-0.9-0.5-1.5v-3.4C41.8,13.2,42.2,8.9,47.5,8.9z"/>
		<path class="st0" d="M14.5,8.9c0,0-5-0.8-5,3.2v5.1c0,0,1,3.4,2,4.4c0.3,0.3,0.5,0.7,0.5,1.1v2.2c0,0-1.5,4.5-6.3,4.9
			c-0.4,0-0.9,0.2-1.2,0.4C3.4,31,1,33,1,35.7h3.5c0.3,0,0.5-0.1,0.7-0.3c1.3-1.6,7.7-8.8,12-9.8c0.6-0.1,1-0.6,1-1.2v-2.1
			c0.3-1.5,0.8-2.9,1.5-4.2c0.3-0.4,0.5-0.9,0.5-1.5v-3.4C20.2,13.2,19.9,8.9,14.5,8.9z"/>
	</g>
</g>
</svg>
