<svg xmlns="http://www.w3.org/2000/svg" viewBox="0 0 217.81 196.61"><defs><style>.cls-1{fill:#fff;}</style></defs><title>icon-branco</title><g id="Layer_2" data-name="Layer 2"><g id="Layer_1-2" data-name="Layer 1"><path class="cls-1" d="M113.26,196.61l94.52-99.85c.06-.09.17-.23.3-.4,15.67-21.59,8.18-51.46,6.24-58.33a75.2,75.2,0,0,0-6.64-16.24C203.33,14,200.19,8.37,193.84,4.46c0,0-14.76-9.07-34.16-.17C158,5.07,152,8.61,152,8.66l-.13.09,7.09-4s-5.55,3.14-7.09,4.05c-23.43,13.83-27.53,36.58-27.53,36.58-3.12,16.38,4.33,30.65,9.25,38.78a117.91,117.91,0,0,0,12.19,16.43s-23.34-40.19-42.11,12.6a1.94,1.94,0,0,1-3.38.51C96.3,108.35,86.75,97.32,70,88.43a1.85,1.85,0,0,0-.29-.13C68,87.67,49,80.71,36.81,63a2,2,0,0,1,2.47-2.87c6.56,3.09,16.84,7.54,22.18,7.88a1.89,1.89,0,0,0,1.16-.33L92.37,48.48a6.55,6.55,0,0,0,.77-.95c2.65-4-.2-9.94-.86-11.25s-1.54-2.53-2.3-3.8a2.81,2.81,0,0,0-1.62-1.3,2.72,2.72,0,0,0-1.7.07L68.77,40.79a1.83,1.83,0,0,1-.54.19c-1.75.32-11.08,1.67-12.45-5.73a1.91,1.91,0,0,1,.7-1.79l8.92-7.35a2,2,0,0,1,2.92.51l1.94,3.22a2,2,0,0,1-.59,2.64l-4.55,3s-.08,2.88,1.44,2.2L84.14,28a18.93,18.93,0,0,0,1-1.77c3.37-6.68,2.32-13.81,1.14-18.21a9.63,9.63,0,0,0-2.4-4.51C80.12-.55,74,0,72.57.1,58.41,1.86,49.3,3,49.29,3h0l-2.64.68a25.29,25.29,0,0,0-2.5.83C10.06,20.54,6,43.29,6,43.29L4.41,46.8A48.66,48.66,0,0,0,.6,74.44,47.05,47.05,0,0,0,5.85,89.57Z"/></g></g></svg>