<svg id="Layer_1" data-name="Layer 1" xmlns="http://www.w3.org/2000/svg" viewBox="0 0 735.29 217.45"><defs><style>.cls-1,.cls-2{fill:#fff;}.cls-2{font-size:180px;font-family:JACKPORTREGULARNCV, JACKPORT REGULAR NCV;}.cls-3{letter-spacing:-0.01em;}.cls-4{letter-spacing:0em;}.cls-5{letter-spacing:-0.01em;}</style></defs><title>logo-branco</title><path class="cls-1" d="M428.61,482.3l94.52-99.84.3-.41c15.68-21.58,8.18-51.46,6.24-58.32A75.11,75.11,0,0,0,523,307.48c-4.35-7.8-7.48-13.42-13.84-17.32,0,0-14.76-9.07-34.15-.17-1.7.78-7.67,4.32-7.73,4.36l-.14.1,7.09-4.05s-5.54,3.13-7.09,4.05C443.74,308.28,439.65,331,439.65,331c-3.13,16.38,4.32,30.65,9.24,38.78a116.66,116.66,0,0,0,12.2,16.43S437.75,346,419,398.83a1.94,1.94,0,0,1-3.39.52c-3.94-5.31-13.48-16.33-30.22-25.23l-.29-.13c-1.78-.62-20.71-7.58-32.92-25.3a2,2,0,0,1,2.48-2.87c6.55,3.08,16.83,7.54,22.17,7.88a1.92,1.92,0,0,0,1.16-.33l29.76-19.2a5.91,5.91,0,0,0,.76-.94c2.66-4-.2-10-.86-11.25l-2.3-3.8a2.85,2.85,0,0,0-1.62-1.31,2.79,2.79,0,0,0-1.7.07l-17.89,9.54a1.67,1.67,0,0,1-.54.2c-1.75.32-11.08,1.66-12.45-5.73a1.94,1.94,0,0,1,.71-1.8l8.91-7.34a2,2,0,0,1,2.93.5l1.93,3.23a2,2,0,0,1-.59,2.64l-4.54,3s-.09,2.88,1.44,2.21l17.57-9.67c.36-.56.7-1.16,1-1.78,3.37-6.67,2.31-13.8,1.13-18.21a9.7,9.7,0,0,0-2.39-4.51c-3.78-4.09-9.93-3.59-11.32-3.45l-23.29,2.9h0c-1.95.49-2.18.55-2.64.68a22.15,22.15,0,0,0-2.49.83c-34.07,16-38.15,38.78-38.15,38.78l-1.57,3.52a48.73,48.73,0,0,0-3.8,27.64,47.16,47.16,0,0,0,5.24,15.13Z" transform="translate(-315.35 -285.7)"/><text class="cls-2" transform="translate(240.52 164.35)">M<tspan class="cls-3" x="108" y="0">Y</tspan><tspan class="cls-4" x="192.78" y="0" xml:space="preserve"> GY</tspan><tspan class="cls-5" x="383.57" y="0">M</tspan></text></svg>